<?xml version="1.0" standalone="no"?>
<!DOCTYPE svg PUBLIC "-//W3C//DTD SVG 20010904//EN"
 "http://www.w3.org/TR/2001/REC-SVG-20010904/DTD/svg10.dtd">
<svg version="1.0" xmlns="http://www.w3.org/2000/svg"
 width="512.000000pt" height="512.000000pt" viewBox="0 0 512.000000 512.000000"
 preserveAspectRatio="xMidYMid meet">
<metadata>
Created by potrace 1.14, written by Peter Selinger 2001-2017
</metadata>
<g transform="translate(0.000000,512.000000) scale(0.100000,-0.100000)"
fill="#000000" stroke="none">
<path d="M0 2560 l0 -2560 2560 0 2560 0 0 2560 0 2560 -2560 0 -2560 0 0
-2560z m3005 1286 c366 -46 711 -123 968 -216 69 -25 87 -36 83 -49 -3 -9 -28
-128 -56 -266 -72 -353 -81 -395 -86 -395 -3 0 -36 16 -74 35 -358 180 -1042
308 -1567 292 -211 -6 -274 -19 -323 -69 -26 -25 -30 -37 -30 -83 0 -48 3 -56
34 -83 55 -48 135 -60 611 -92 238 -16 476 -34 531 -40 676 -73 1072 -284
1159 -615 9 -36 15 -103 15 -168 0 -90 -4 -122 -26 -185 -100 -299 -442 -508
-985 -603 -245 -42 -402 -51 -804 -46 -521 7 -785 39 -1215 147 -137 35 -371
108 -384 121 -6 5 -5 31 2 66 26 140 124 608 127 611 2 2 25 -7 52 -19 334
-152 758 -255 1213 -294 238 -21 689 -16 807 9 125 26 172 61 173 129 0 58
-22 91 -77 115 -71 30 -157 40 -591 67 -430 27 -589 43 -787 81 -608 117 -896
350 -895 725 1 279 156 497 465 649 184 91 400 149 685 185 161 20 791 14 975
-9z"/>
</g>
</svg>
