<svg width="272" height="51" viewBox="0 0 272 51" fill="none" xmlns="http://www.w3.org/2000/svg">
<path d="M16.1476 0.549835C22.203 0.549835 25.2034 2.81377 25.2034 7.36893C25.2034 11.2967 23.0213 13.4788 18.5752 14.0244C21.0301 14.5699 22.8576 17.1884 24.6851 22.0709L26.0217 25.6986H23.294L21.6302 21.4981C20.9483 19.6978 20.2936 18.334 19.7754 17.4339C19.2298 16.5065 18.4934 15.7428 17.4842 15.1427C16.5022 14.5426 15.1384 14.2153 13.4472 14.2153H2.26394V25.7259H0V0.549835H16.1476ZM22.8576 7.36893C22.8576 4.06849 20.5937 2.40463 16.0112 2.40463H2.26394V12.3332H16.0385C20.5937 12.3332 22.8576 10.6966 22.8576 7.36893V7.36893Z" fill="white"/>
<path d="M46.2607 0.00159205C55.7802 -0.107513 62.4629 5.40231 62.3811 13.1215C62.4902 20.8407 55.8075 26.3506 46.2607 26.2415C36.7413 26.3506 30.0586 20.8407 30.1404 13.1215C30.0586 5.40504 36.7413 -0.104786 46.2607 0.00159205ZM46.3153 1.88366C38.0505 1.88366 32.5407 6.41154 32.5407 13.1488C32.5407 19.8861 38.0505 24.4139 46.3153 24.4139C54.58 24.4139 60.008 19.8861 60.008 13.1488C60.008 6.41154 54.4709 1.88639 46.3153 1.88639V1.88366Z" fill="white"/>
<path d="M84.5567 0.549835C90.012 0.549835 92.6578 2.40463 92.6578 6.49608C92.6578 9.46921 91.2122 11.2149 88.1845 11.9241C92.2214 12.2514 94.4308 14.7063 94.4308 18.525C94.4308 23.271 91.0758 25.7259 85.2932 25.7259H68.3818V0.549835H84.5567ZM90.3939 6.52336C90.3939 4.04121 88.3481 2.4319 85.2114 2.4319H70.6731V11.1058H85.2114C88.3481 11.0785 90.3939 9.251 90.3939 6.52336V6.52336ZM92.1395 18.0885C92.1395 14.9518 89.7938 12.906 86.166 12.906H70.6731V23.8439H86.166C89.8211 23.8439 92.1395 21.5526 92.1395 18.0885Z" fill="white"/>
<path d="M114.833 0.00159205C124.353 -0.107513 131.063 5.40231 130.954 13.1215C131.063 20.8407 124.38 26.3506 114.833 26.2415C105.314 26.3506 98.604 20.8407 98.7131 13.1215C98.6313 5.40504 105.314 -0.104786 114.833 0.00159205ZM114.888 1.88366C106.623 1.88366 101.113 6.41154 101.113 13.1488C101.113 19.8861 106.623 24.4139 114.888 24.4139C123.153 24.4139 128.581 19.8861 128.581 13.1488C128.581 6.41154 123.044 1.88366 114.888 1.88366V1.88366Z" fill="white"/>
<path d="M132.536 2.40463V0.549835H159.185V2.40463H147.02L146.992 25.6986H144.756V2.40463H132.536V2.40463Z" fill="white"/>
<path d="M170.095 36.6365C173.368 36.6365 174.978 37.8912 174.978 40.3461C174.978 42.801 173.368 44.0557 170.095 44.0557H163.085V49.6473H161.912V36.5819L170.095 36.6365V36.6365ZM173.778 40.4006C173.778 38.5458 172.55 37.6457 170.068 37.6457H163.085V43.1828H170.068C172.55 43.1555 173.778 42.2554 173.778 40.4006V40.4006Z" fill="white"/>
<path d="M186.325 36.6365C189.461 36.6365 191.043 37.8094 191.043 40.1824C191.043 42.2281 189.898 43.3737 187.607 43.6465C188.889 43.9193 189.816 45.2831 190.798 47.8198L191.48 49.7019H190.062L189.216 47.5197C188.889 46.5923 188.534 45.8832 188.261 45.4195C187.989 44.9285 187.579 44.5466 187.061 44.2193C186.543 43.9193 185.834 43.7283 184.961 43.7283H179.178V49.7019H178.005V36.6365H186.325V36.6365ZM189.816 40.2097C189.816 38.464 188.643 37.6184 186.27 37.6184H179.151V42.7737H186.297C188.643 42.7737 189.816 41.9281 189.816 40.2097Z" fill="white"/>
<path d="M201.981 36.3637C206.918 36.3092 210.382 39.1732 210.328 43.1828C210.382 47.1924 206.918 50.0564 201.981 50.0019C197.044 50.0564 193.58 47.1924 193.635 43.1828C193.553 39.1732 197.017 36.3092 201.981 36.3637ZM202.009 37.3184C197.726 37.3184 194.862 39.6642 194.862 43.1828C194.862 46.7015 197.726 49.0472 202.009 49.0472C206.291 49.0472 209.1 46.7015 209.1 43.1828C209.1 39.6642 206.236 37.3184 202.009 37.3184Z" fill="white"/>
<path d="M211.61 47.9016C213.492 48.6654 215.238 49.0472 216.874 49.0472C219.82 49.0472 221.129 47.8743 221.129 45.3376V36.6638H222.302V45.3376C222.302 48.5017 220.502 50.0292 216.792 50.0292C215.128 50.0292 213.356 49.7291 211.446 49.0745L211.61 47.9016V47.9016Z" fill="white"/>
<path d="M238.668 36.6365V37.5912H227.212V42.6918H238.123V43.6465H227.212V48.7199H238.668V49.6746H226.066V36.6092L238.668 36.6365V36.6365Z" fill="white"/>
<path d="M249.251 36.3637C252.006 36.3637 254.679 36.8547 256.48 37.7003L256.289 38.8731C254.516 37.9185 251.952 37.3729 249.279 37.3729C244.778 37.3729 242.132 39.5278 242.132 43.2374C242.132 46.9469 244.805 49.1018 249.279 49.1018C251.924 49.1018 254.543 48.529 256.289 47.6016L256.48 48.7745C254.679 49.62 252.006 50.111 249.251 50.111C243.987 50.111 240.877 47.547 240.877 43.2919C240.877 39.0368 243.96 36.3637 249.251 36.3637V36.3637Z" fill="white"/>
<path d="M258.062 37.6184V36.6638H271.891V37.6184H265.59L265.563 49.7291H264.39V37.6184H258.062Z" fill="white"/>
<path d="M163.495 17.0793C165.049 18.0067 167.013 18.7977 169.359 19.4251C171.732 20.0252 174.214 20.3525 176.805 20.3525C181.17 20.3525 183.843 19.9706 183.843 18.3886C183.843 17.2703 182.915 16.8338 180.761 16.6702L176.314 16.3429C173.45 16.1246 171.077 15.8519 169.195 15.4427C167.368 15.0609 165.786 14.2971 164.477 13.1788C163.167 12.0605 162.54 10.4784 162.54 8.35088C162.54 3.03199 166.959 0.00158691 176.505 0.00158691C181.933 0.00158691 187.198 0.874431 191.044 2.40191L190.007 9.16645C186.652 7.14799 181.688 5.89328 176.424 5.89328C173.014 5.89328 171.296 6.54792 171.296 7.80263C171.296 9.13917 172.523 9.49376 175.96 9.76653L180.842 10.2029C184.443 10.503 187.307 11.2122 189.462 12.3851C191.644 13.5579 192.735 15.4127 192.735 17.9494C192.735 23.1592 187.661 26.2142 177.024 26.2142C171.596 26.2142 166.331 25.3413 162.485 23.8139L163.495 17.0766V17.0793Z" fill="white"/>
<path d="M204.627 0.549866V10.1784H217.502V0.549866H226.312V25.726H217.502V16.0974H204.627V25.726H195.817V0.549866H204.627Z" fill="white"/>
<path d="M239.514 0.549866V25.726H230.703V0.549866H239.514Z" fill="white"/>
<path d="M243.196 6.76888V0.549866H272V6.76888H262.044L262.017 25.726H253.179V6.76888H243.196Z" fill="white"/>
</svg>
