<svg width="456" height="89" viewBox="0 0 456 89" fill="none" xmlns="http://www.w3.org/2000/svg">
<g clip-path="url(#clip0_58_534)">
<path d="M27.0653 0.911652C37.1937 0.911652 42.2556 4.73778 42.2556 12.4453C42.2556 19.0616 38.5792 22.7634 31.1624 23.675C35.2595 24.5867 38.3368 29.0159 41.4097 37.2713L43.6411 43.3996H39.0593L36.2883 36.2999C35.1452 33.2657 34.0569 30.9589 33.1561 29.4395C32.2507 27.8603 30.9886 26.5849 29.2968 25.5536C27.6689 24.5222 25.378 23.9743 22.5476 23.9743H3.79528V43.395H0V0.911652H27.0653ZM38.3368 12.4453C38.3368 6.86033 34.5416 4.07016 26.8824 4.07016H3.79528V20.8204H26.8824C34.537 20.8204 38.3368 18.0302 38.3368 12.4453Z" fill="white"/>
<path d="M77.579 5.71832e-06C93.5512 -0.184164 104.763 9.10259 104.585 22.151C104.768 35.1994 93.5558 44.4862 77.579 44.302C61.6069 44.4816 50.3948 35.1994 50.5731 22.151C50.3948 9.1072 61.6069 -0.17956 77.579 5.71832e-06ZM77.6385 3.15391C63.7743 3.15391 54.5513 10.8016 54.5513 22.151C54.5513 33.5005 63.7743 41.1481 77.6385 41.1481C91.5027 41.1481 100.602 33.5005 100.602 22.151C100.602 10.8016 91.3198 3.15852 77.6385 3.15852V3.15391Z" fill="white"/>
<path d="M141.779 0.911652C150.942 0.911652 155.341 4.06556 155.341 10.9259C155.341 15.9629 152.931 18.8774 147.865 20.0883C154.614 20.6362 158.354 24.7616 158.354 31.2536C158.354 39.265 152.748 43.3904 143.045 43.3904H114.713V0.911652H141.779ZM151.546 10.9857C151.546 6.79587 148.112 4.06556 142.867 4.06556H118.513V18.6932H142.867C148.112 18.6932 151.546 15.5992 151.546 10.9857ZM154.5 30.5307C154.5 25.2497 150.581 21.7919 144.495 21.7919H118.513V40.2411H144.495C150.581 40.2411 154.5 36.3551 154.5 30.5307Z" fill="white"/>
<path d="M192.53 5.71832e-06C208.502 -0.184164 219.714 9.10259 219.536 22.151C219.719 35.1994 208.507 44.4862 192.53 44.302C176.558 44.4816 165.346 35.1994 165.524 22.151C165.346 9.1072 176.558 -0.17956 192.53 5.71832e-06ZM192.59 3.15391C178.725 3.15391 169.502 10.8016 169.502 22.151C169.502 33.5005 178.725 41.1481 192.59 41.1481C206.454 41.1481 215.553 33.5005 215.553 22.151C215.553 10.8016 206.271 3.15391 192.59 3.15391Z" fill="white"/>
<path d="M222.193 4.07016V0.911652H266.858V4.06556H246.483L246.423 43.395H242.687V4.07016H222.193Z" fill="white"/>
<path d="M13.192 67.3647C18.4505 67.3647 21.0661 69.3905 21.0661 73.4192C21.0661 77.4479 18.4505 79.4738 13.192 79.4738H1.89306V88.5534H0V67.3693H13.192V67.3647ZM19.1136 73.4192C19.1136 70.4219 17.129 68.9393 13.1326 68.9393H1.89306V77.8992H13.1326C17.129 77.8992 19.1136 76.4166 19.1136 73.4192Z" fill="white"/>
<path d="M39.3109 67.3647C44.359 67.3647 46.8831 69.2708 46.8831 73.1154C46.8831 76.412 45.0495 78.2583 41.3548 78.7141C43.3988 79.17 44.9306 81.3754 46.4625 85.4916L47.5736 88.5488H45.2873L43.9064 85.0081C43.3348 83.4933 42.7952 82.3469 42.3425 81.5872C41.8898 80.7999 41.2588 80.1645 40.4174 79.6488C39.6081 79.1331 38.4649 78.8615 37.052 78.8615H27.7056V88.5442H25.8125V67.3601H39.3063L39.3109 67.3647ZM44.9306 73.1154C44.9306 70.3298 43.0376 68.9393 39.2194 68.9393H27.7101V77.2914H39.2194C43.0376 77.2914 44.9306 75.9009 44.9306 73.1154Z" fill="white"/>
<path d="M64.4968 66.9089C72.4623 66.8168 78.05 71.4486 77.9631 77.9544C78.0546 84.4602 72.4623 89.0921 64.4968 89C56.5313 89.0921 50.9435 84.4602 51.0304 77.9544C50.9389 71.4486 56.5313 66.8168 64.4968 66.9089ZM64.5288 68.4835C57.615 68.4835 53.0195 72.2958 53.0195 77.9544C53.0195 83.613 57.6195 87.4254 64.5288 87.4254C71.438 87.4254 75.9786 83.613 75.9786 77.9544C75.9786 72.2958 71.3511 68.4835 64.5288 68.4835Z" fill="white"/>
<path d="M79.9752 85.5791C82.9794 86.8176 85.8053 87.4254 88.4208 87.4254C93.1992 87.4254 95.2752 85.5514 95.2752 81.403V67.3601H97.1683V81.403C97.1683 86.5183 94.2829 89 88.2745 89C85.5995 89 82.7462 88.4843 79.678 87.4576L79.9798 85.5791H79.9752Z" fill="white"/>
<path d="M123.584 67.3647V68.9393H105.161V77.1717H122.715V78.7463H105.161V86.9787H123.584V88.5534H103.268V67.3693H123.584V67.3647Z" fill="white"/>
<path d="M140.567 66.9088C144.984 66.9088 149.282 67.6962 152.168 69.059L151.866 70.9329C149.013 69.3905 144.865 68.4835 140.567 68.4835C133.351 68.4835 129.058 71.9919 129.058 77.9544C129.058 83.9169 133.356 87.4253 140.567 87.4253C144.806 87.4253 149.013 86.5183 151.866 84.9759L152.168 86.8544C149.282 88.2173 144.984 89.0046 140.567 89.0046C132.089 89.0046 127.101 84.8608 127.101 77.959C127.101 71.0573 132.089 66.9134 140.567 66.9134V66.9088Z" fill="white"/>
<path d="M154.756 68.9347V67.3601H177.029V68.9347H166.869L166.837 88.5442H164.971V68.9347H154.751H154.756Z" fill="white"/>
<path d="M346.321 75.7444L343.258 75.5372C341.419 75.4497 340.807 75.2425 340.807 74.5657C340.807 73.8889 341.566 73.6264 343.171 73.6264C344.949 73.6264 346.733 73.8014 348.544 74.1836C350.354 74.5657 351.785 75.0353 352.865 75.6523L353.711 71.5361C350.994 70.4771 347.432 69.8602 344.017 69.8602C338.091 69.8602 334.556 71.8308 334.556 75.0353C334.556 77.8577 337.359 79.414 343.344 79.7961L346.294 79.9711C348.164 80.0908 348.745 80.2658 348.745 80.9702C348.745 81.6747 347.693 81.9095 345.009 81.9095C343.23 81.9095 341.479 81.7345 339.723 81.38C337.972 80.9978 336.453 80.496 335.196 79.879L334.35 83.9952C337.414 85.114 340.829 85.6711 344.597 85.6711C351.136 85.6711 355.018 83.7604 355.018 80.5558C355.018 77.6736 352.128 76.0575 346.317 75.7352L346.321 75.7444Z" fill="white"/>
<path d="M371.548 79.5659C370.264 80.7124 368.306 81.1544 366.528 81.1544C364.191 81.1544 363.025 80.0079 363.025 77.715V70.3068H356.312V78.0097C356.312 82.95 359.175 85.6804 364.164 85.6804C367.172 85.6804 369.623 84.5339 371.548 82.241V85.2384H378.261V70.3068H371.548V79.5659Z" fill="white"/>
<path d="M392.395 74.3907C393.941 74.3907 395.518 74.5381 397.064 74.8604C398.609 75.1827 399.867 75.5648 400.799 76.0667L401.645 71.5407C399.194 70.4541 395.806 69.8648 392.217 69.8648C384.512 69.8648 380.104 72.747 380.104 77.7703C380.104 82.8257 384.484 85.6757 392.217 85.6757C395.747 85.6757 399.076 85.0864 401.645 83.9998L400.799 79.4738C399.894 79.9435 398.641 80.3578 397.032 80.6801C395.427 81.0024 393.881 81.1498 392.39 81.1498C389.094 81.1498 387.223 79.9158 387.223 77.7703C387.223 75.3899 388.769 74.3907 392.39 74.3907H392.395Z" fill="white"/>
<path d="M418.084 70.3068L410.672 75.6846V70.3068H403.955V85.2384H410.672V81.9187L414.842 78.8016L419.341 85.2384H426.786L419.689 75.7766L426.932 70.3068H418.084Z" fill="white"/>
<path d="M439.164 75.7444L436.1 75.5372C434.262 75.4497 433.649 75.2425 433.649 74.5657C433.649 73.8889 434.408 73.6264 436.013 73.6264C437.792 73.6264 439.575 73.8014 441.386 74.1836C443.197 74.5657 444.628 75.0353 445.707 75.6523L446.553 71.5361C443.837 70.4771 440.275 69.8602 436.859 69.8602C430.933 69.8602 427.398 71.8308 427.398 75.0353C427.398 77.8577 430.201 79.414 436.187 79.7961L439.136 79.9711C441.007 80.0908 441.587 80.2658 441.587 80.9702C441.587 81.6747 440.536 81.9095 437.851 81.9095C436.073 81.9095 434.321 81.7345 432.565 81.38C430.814 80.9978 429.296 80.496 428.039 79.879L427.193 83.9952C430.256 85.114 433.672 85.6711 437.44 85.6711C443.979 85.6711 447.861 83.7604 447.861 80.5558C447.861 77.6736 444.971 76.0575 439.159 75.7352L439.164 75.7444Z" fill="white"/>
<path d="M452.863 79.8928C450.998 79.8698 449.685 81.0807 449.708 82.7843C449.685 84.4878 450.998 85.6988 452.863 85.6757C454.715 85.6988 456.027 84.4878 456.005 82.7843C456.027 81.0807 454.715 79.8698 452.863 79.8928Z" fill="white"/>
<path d="M452.068 67.2035C453.453 67.1851 454.441 68.0967 454.422 69.3721C454.441 70.6475 453.453 71.5591 452.068 71.5407C450.668 71.5591 449.685 70.6475 449.699 69.3721C449.681 68.0921 450.668 67.1851 452.068 67.2035ZM452.068 67.489C450.847 67.489 450.019 68.2303 450.019 69.3721C450.019 70.514 450.847 71.2552 452.068 71.2552C453.288 71.2552 454.102 70.514 454.102 69.3721C454.102 68.2303 453.288 67.489 452.068 67.489ZM452.388 68.2257C452.959 68.2257 453.275 68.4559 453.275 68.8841C453.275 69.2248 453.078 69.432 452.689 69.4964C452.918 69.5425 453.069 69.7359 453.238 70.1917L453.357 70.4956H452.914L452.758 70.1088C452.671 69.8878 452.589 69.7405 452.497 69.6622C452.415 69.5839 452.292 69.5517 452.127 69.5517H451.29V70.4956H450.911V68.2257H452.388ZM452.882 68.8841C452.882 68.6308 452.694 68.4927 452.347 68.4927H451.29V69.2846H452.347C452.694 69.2846 452.882 69.1465 452.882 68.8887V68.8841Z" fill="white"/>
<path d="M332.471 84.3773H192.53V88.2956H332.471V84.3773Z" fill="white"/>
<path d="M274.119 28.8318C276.712 30.411 280.027 31.7462 283.946 32.7776C287.924 33.8089 292.085 34.3568 296.425 34.3568C303.718 34.3568 308.24 33.6892 308.24 31.0188C308.24 29.1356 306.672 28.4082 303.055 28.1043L295.579 27.5564C290.754 27.1926 286.776 26.7046 283.64 26.0416C280.567 25.374 277.915 24.0986 275.743 22.2155C273.571 20.3323 272.487 17.6619 272.487 14.0798C272.487 5.09689 279.904 -0.00460815 295.876 -0.00460815C304.98 -0.00460815 313.782 1.45033 320.23 4.06094L318.483 15.4749C312.877 12.0769 304.559 9.94976 295.698 9.94976C289.973 9.94976 287.078 11.041 287.078 13.1681C287.078 15.415 289.127 16.0228 294.916 16.5062L303.114 17.2337C309.146 17.7217 313.965 18.9326 317.582 20.9355C321.258 22.9383 323.069 26.0324 323.069 30.342C323.069 39.1453 314.569 44.302 296.726 44.302C287.622 44.302 278.82 42.8471 272.373 40.2365L274.119 28.8272V28.8318Z" fill="white"/>
<path d="M343.033 0.911621V17.1784H364.616V0.911621H379.386V43.3996H364.616V27.1328H343.033V43.3996H328.264V0.911621H343.033Z" fill="white"/>
<path d="M401.508 0.911621V43.3996H386.739V0.911621H401.508Z" fill="white"/>
<path d="M407.713 11.4139V0.911621H456V11.4139H439.301L439.241 43.4042H424.412V11.4139H407.713Z" fill="white"/>
</g>
<defs>
<clipPath id="clip0_58_534">
<rect width="456" height="89" fill="white"/>
</clipPath>
</defs>
</svg>
