<?xml version="1.0" encoding="UTF-8"?>
<svg width="231px" height="45px" viewBox="0 0 231 45" version="1.1" xmlns="http://www.w3.org/2000/svg" xmlns:xlink="http://www.w3.org/1999/xlink">
    <title>designwanted</title>
    <g id="Page-1" stroke="none" stroke-width="1" fill="none" fill-rule="evenodd">
        <g id="designwanted" transform="translate(0.000000, -0.001465)" fill="#FFFFFF" fill-rule="nonzero">
            <path d="M46.4453,23.4747648 L46.4453,23.2423648 C46.4453,18.3908648 49.288,15.3186648 53.1859,15.3186648 C55.6266,15.3186648 57.1485,16.4516648 57.9812,17.9623648 L57.9812,8.60791483 L61.4556,8.60791483 L61.4556,30.8173648 L57.9812,30.8173648 L57.9812,28.2608648 C57.1772,29.7715648 55.2534,31.1078648 53.0424,31.1078648 C49.2808,31.1078648 46.4453,28.4061648 46.4453,23.4747648 Z M58.0961,23.3004648 L58.0961,23.0680648 C58.0961,19.7271648 56.5742,18.0712648 54.0474,18.0712648 C51.5205,18.0712648 49.9987,19.8724648 49.9987,23.1551648 L49.9987,23.3875648 C49.9987,26.7284648 51.6641,28.3262648 53.9038,28.3262648 C56.3158,28.3262648 58.0961,26.6994648 58.0961,23.3004648 Z" id="Shape"></path>
            <path d="M64.0112,23.3875648 L64.0112,23.1550648 C64.0112,18.4488648 67.1985,15.3185648 71.4697,15.3185648 C75.2026,15.3185648 78.5549,17.5555648 78.5549,22.9807648 L78.5549,23.9975648 L67.5646,23.9975648 C67.6795,26.8736648 69.1152,28.5004648 71.6994,28.5004648 C73.7956,28.5004648 74.8867,27.6580648 75.1451,26.1764648 L78.5047,26.1764648 C78.0165,29.3720648 75.461,31.1078648 71.6205,31.1078648 C67.1985,31.1078648 64.0184,28.1736648 64.0184,23.3875648 L64.0112,23.3875648 Z M75.1164,21.6444648 C74.9441,19.0298648 73.6233,17.8678648 71.4697,17.8678648 C69.3736,17.8678648 67.9666,19.2913648 67.622,21.6444648 L75.1092,21.6444648 L75.1164,21.6444648 Z" id="Shape"></path>
            <path d="M80.2274,26.0894648 L83.5008,26.0894648 C83.6731,27.6291648 84.4484,28.5297648 86.4871,28.5297648 C88.3535,28.5297648 89.1862,27.8615648 89.1862,26.5832648 C89.1862,25.3341648 88.1812,24.8692648 85.9702,24.4916648 C82.0077,23.8525648 80.5432,22.7195648 80.5432,19.8725648 C80.5432,16.8221648 83.3572,15.3115648 86.164,15.3115648 C89.2364,15.3115648 91.67,16.4735648 92.0433,19.9015648 L88.8273,19.9015648 C88.5401,18.5071648 87.7648,17.8679648 86.1569,17.8679648 C84.6637,17.8679648 83.7736,18.5942648 83.7736,19.6691648 C83.7736,20.7440648 84.4914,21.2088648 86.8747,21.6155648 C90.4065,22.1675648 92.4955,23.0390648 92.4955,26.2637648 C92.4955,29.4883648 90.3419,31.1152648 86.5014,31.1152648 C82.625,31.1152648 80.3638,29.3140648 80.2202,26.0894648 L80.2274,26.0894648 Z" id="Path"></path>
            <path d="M94.6709,11.1353648 C94.6709,9.97333483 95.5897,9.10180483 96.7383,9.10180483 C97.8869,9.10180483 98.8057,9.97333483 98.8057,11.1353648 C98.8057,12.2974648 97.8869,13.1398648 96.7383,13.1398648 C95.5897,13.1398648 94.6709,12.2683648 94.6709,11.1353648 Z M95.0442,15.6382648 L98.5186,15.6382648 L98.5186,30.8246648 L95.0442,30.8246648 L95.0442,15.6382648 Z" id="Shape"></path>
            <path d="M101.182,31.3402648 L104.685,31.3402648 C104.972,32.8508648 106.121,33.7223648 108.389,33.7223648 C111.088,33.7223648 112.581,32.3570648 112.581,29.6262648 L112.581,27.3892648 C111.748,28.8418648 109.882,30.2072648 107.671,30.2072648 C103.91,30.2072648 101.017,27.3602648 101.017,22.9807648 L101.017,22.7774648 C101.017,18.5069648 103.888,15.3185648 107.757,15.3185648 C110.227,15.3185648 111.72,16.4515648 112.581,17.9622648 L112.581,15.6381648 L116.056,15.6381648 L116.056,29.6915648 C116.027,34.1654648 113.069,36.3950648 108.425,36.3950648 C103.716,36.3950648 101.598,34.2453648 101.196,31.3402648 L101.182,31.3402648 Z M112.689,22.8645648 L112.689,22.6612648 C112.689,19.7851648 111.138,18.0711648 108.64,18.0711648 C106.142,18.0711648 104.563,19.9594648 104.563,22.7193648 L104.563,22.9517648 C104.563,25.7696648 106.286,27.5127648 108.525,27.5127648 C110.937,27.5127648 112.689,25.7696648 112.689,22.8645648 Z" id="Shape"></path>
            <path d="M119.458,15.6381648 L122.932,15.6381648 L122.932,18.0493648 C123.65,16.5677648 125.316,15.3185648 127.785,15.3185648 C130.8,15.3185648 132.925,17.0907648 132.925,21.2667648 L132.925,30.8172648 L129.451,30.8172648 L129.451,21.5863648 C129.451,19.2913648 128.532,18.2454648 126.464,18.2454648 C124.512,18.2454648 122.932,19.4656648 122.932,21.8768648 L122.932,30.8172648 L119.458,30.8172648 L119.458,15.6381648 Z" id="Path"></path>
            <polygon id="Path" points="134.274 15.6381648 137.979 15.6381648 140.965 26.6121648 144.152 15.6381648 147.052 15.6381648 149.981 26.6121648 153.111 15.6381648 156.499 15.6381648 151.79 30.8245648 148.258 30.8245648 145.473 20.6058648 142.429 30.8245648 138.869 30.8245648"></polygon>
            <path d="M157.052,26.6123648 C157.052,23.0681648 160.44,21.7898648 164.74,21.7898648 L166.607,21.7898648 L166.607,21.0055648 C166.607,18.9719648 165.917,17.9551648 163.879,17.9551648 C162.07,17.9551648 161.18,18.8266648 161.007,20.3373648 L157.648,20.3373648 C157.935,16.7931648 160.72,15.3115648 164.073,15.3115648 C167.432,15.3115648 170.067,16.7059648 170.067,20.8529648 L170.067,30.8102648 L166.65,30.8102648 L166.65,28.9509648 C165.673,30.2582648 164.353,31.1007648 162.055,31.1007648 C159.299,31.1007648 157.038,29.7643648 157.038,26.5978648 L157.052,26.6123648 Z M166.607,25.5084648 L166.607,23.9977648 L164.826,23.9977648 C162.185,23.9977648 160.49,24.6078648 160.49,26.4670648 C160.49,27.7453648 161.18,28.5878648 162.902,28.5878648 C165.027,28.5878648 166.607,27.4548648 166.607,25.5084648 Z" id="Shape"></path>
            <path d="M173.412,15.6381648 L176.887,15.6381648 L176.887,18.0493648 C177.604,16.5677648 179.27,15.3185648 181.739,15.3185648 C184.754,15.3185648 186.879,17.0907648 186.879,21.2667648 L186.879,30.8172648 L183.405,30.8172648 L183.405,21.5863648 C183.405,19.2913648 182.486,18.2454648 180.418,18.2454648 C178.466,18.2454648 176.887,19.4656648 176.887,21.8768648 L176.887,30.8172648 L173.412,30.8172648 L173.412,15.6381648 Z" id="Path"></path>
            <path d="M190.576,26.5831648 L190.576,18.2818648 L188.566,18.2818648 L188.566,15.6382648 L190.576,15.6382648 L190.576,12.2973648 L194.05,12.2973648 L194.05,15.6382648 L197.352,15.6382648 L197.352,18.2818648 L194.05,18.2818648 L194.05,26.2636648 C194.05,27.5999648 194.682,28.2100648 195.773,28.2100648 C196.462,28.2100648 196.979,28.1228648 197.467,27.9195648 L197.467,30.7084648 C196.922,30.9117648 196.175,31.0860648 195.113,31.0860648 C192.126,31.0860648 190.576,29.4592648 190.576,26.5831648 Z" id="Path"></path>
            <path d="M198.637,23.3875648 L198.637,23.1550648 C198.637,18.4488648 201.824,15.3185648 206.096,15.3185648 C209.829,15.3185648 213.181,17.5555648 213.181,22.9807648 L213.181,23.9975648 L202.191,23.9975648 C202.305,26.8736648 203.741,28.5004648 206.325,28.5004648 C208.422,28.5004648 209.513,27.6580648 209.771,26.1764648 L213.131,26.1764648 C212.643,29.3720648 210.087,31.1078648 206.246,31.1078648 C201.824,31.1078648 198.644,28.1736648 198.644,23.3875648 L198.637,23.3875648 Z M209.742,21.6444648 C209.57,19.0298648 208.249,17.8678648 206.096,17.8678648 C204,17.8678648 202.593,19.2913648 202.248,21.6444648 L209.735,21.6444648 L209.742,21.6444648 Z" id="Shape"></path>
            <path d="M214.997,23.4747648 L214.997,23.2423648 C214.997,18.3908648 217.84,15.3186648 221.738,15.3186648 C224.178,15.3186648 225.7,16.4516648 226.533,17.9623648 L226.533,8.60791483 L230.007,8.60791483 L230.007,30.8173648 L226.533,30.8173648 L226.533,28.2608648 C225.729,29.7715648 223.805,31.1078648 221.594,31.1078648 C217.833,31.1078648 214.997,28.4061648 214.997,23.4747648 Z M226.648,23.3004648 L226.648,23.0680648 C226.648,19.7271648 225.126,18.0712648 222.599,18.0712648 C220.044,18.0712648 218.55,19.8724648 218.55,23.1551648 L218.55,23.3875648 C218.55,26.7284648 220.216,28.3262648 222.456,28.3262648 C224.868,28.3262648 226.648,26.6994648 226.648,23.3004648 Z" id="Shape"></path>
            <path d="M38.9435,12.0139648 C38.9435,11.4547648 38.6492,10.9463648 38.1754,10.6630648 L20.2865,0.211995829 C19.26,-0.390813171 17.975,0.364512829 17.975,1.56286483 L17.975,5.86241483 L20.9685,7.61273483 L20.9685,4.11209483 L35.9429,12.8636648 L35.9429,30.3596648 L29.9488,26.8590648 L29.9488,17.2576648 C29.9488,16.6984648 29.6545,16.1900648 29.1807,15.9067648 L11.299,5.46296483 C10.2725,4.86015483 8.98752,5.61548483 8.98752,6.81383483 L8.98752,11.1133648 L11.981,12.8636648 L11.981,9.36306483 L26.9625,18.1146648 L26.9625,27.3310648 L20.9685,37.8330648 L20.9685,27.0115648 C20.9685,23.6706648 19.2097,20.5839648 16.3527,18.9208648 L2.31149,10.7139648 C1.28496,10.1111648 0,10.8591648 0,12.0575648 L0,32.9597648 C0,33.5189648 0.29432,34.0273648 0.768102,34.3105648 L18.7288,44.7980648 L18.736,44.7980648 C19.4897,45.2337648 20.3798,44.9142648 20.7675,44.2315648 L29.0013,29.8004648 L36.6248,34.2524648 C37.6514,34.8553648 38.9363,34.0999648 38.9363,32.9016648 L38.9363,12.0139648 L38.9435,12.0139648 Z M17.975,40.8615648 L2.99345,32.1099648 L2.99345,14.6140648 L14.8954,21.5644648 C16.7978,22.6756648 17.975,24.7310648 17.975,26.9606648 L17.975,40.8615648 Z" id="Shape"></path>
        </g>
    </g>
</svg>