<svg width="313" height="62" viewBox="0 0 313 62" fill="none" xmlns="http://www.w3.org/2000/svg">
<path d="M63.2178 32.3111V31.9984C63.2178 25.4703 67.074 21.3365 72.3617 21.3365C75.6727 21.3365 77.7371 22.861 78.8667 24.8937V12.3066H83.5799V42.1912H78.8667V38.7512C77.7761 40.7839 75.1663 42.5821 72.167 42.5821C67.0643 42.5821 63.2178 38.9467 63.2178 32.3111ZM79.0225 32.0765V31.7638C79.0225 27.2684 76.9581 25.0403 73.5303 25.0403C70.1025 25.0403 68.0381 27.4639 68.0381 31.8811V32.1938C68.0381 36.6892 70.2973 38.8392 73.3355 38.8392C76.6075 38.8392 79.0225 36.6501 79.0225 32.0765Z" fill="white"/>
<path d="M87.0469 32.194V31.8813C87.0469 25.5486 91.3705 21.3367 97.1646 21.3367C102.228 21.3367 106.776 24.3466 106.776 31.6467V33.0149H91.8672C92.023 36.8848 93.9706 39.0739 97.4763 39.0739C100.32 39.0739 101.8 37.9403 102.15 35.9467H106.708C106.046 40.2466 102.579 42.5822 97.3691 42.5822C91.3705 42.5822 87.0566 38.6341 87.0566 32.194H87.0469ZM102.112 29.8486C101.878 26.3305 100.086 24.7668 97.1646 24.7668C94.3211 24.7668 92.4125 26.6823 91.9451 29.8486H102.102H102.112Z" fill="white"/>
<path d="M109.045 35.8291H113.485C113.719 37.9009 114.771 39.1127 117.536 39.1127C120.068 39.1127 121.198 38.2137 121.198 36.4937C121.198 34.8128 119.835 34.1874 116.835 33.6792C111.46 32.8192 109.473 31.2947 109.473 27.4638C109.473 23.3594 113.291 21.3267 117.098 21.3267C121.266 21.3267 124.567 22.8903 125.074 27.5029H120.711C120.321 25.6266 119.27 24.7666 117.088 24.7666C115.063 24.7666 113.855 25.7439 113.855 27.1902C113.855 28.6365 114.829 29.262 118.062 29.8092C122.853 30.552 125.687 31.7247 125.687 36.0637C125.687 40.4027 122.766 42.5918 117.556 42.5918C112.297 42.5918 109.23 40.1682 109.035 35.8291H109.045Z" fill="white"/>
<path d="M128.638 15.7075C128.638 14.1439 129.884 12.9712 131.442 12.9712C133 12.9712 134.247 14.1439 134.247 15.7075C134.247 17.2711 133 18.4047 131.442 18.4047C129.884 18.4047 128.638 17.232 128.638 15.7075ZM129.144 21.7665H133.857V42.2009H129.144V21.7665Z" fill="white"/>
<path d="M137.47 42.895H142.222C142.612 44.9276 144.17 46.1004 147.247 46.1004C150.908 46.1004 152.934 44.2631 152.934 40.5886V37.5787C151.804 39.5332 149.273 41.3704 146.273 41.3704C141.171 41.3704 137.246 37.5396 137.246 31.6467V31.3731C137.246 25.6268 141.141 21.3367 146.39 21.3367C149.74 21.3367 151.765 22.8612 152.934 24.8939V21.7667H157.647V40.6766C157.608 46.6965 153.596 49.6967 147.296 49.6967C140.908 49.6967 138.035 46.804 137.49 42.895H137.47ZM153.08 31.4904V31.2167C153.08 27.3468 150.977 25.0405 147.588 25.0405C144.199 25.0405 142.057 27.5813 142.057 31.2949V31.6076C142.057 35.3994 144.394 37.7448 147.432 37.7448C150.704 37.7448 153.08 35.3994 153.08 31.4904Z" fill="white"/>
<path d="M162.263 21.7667H166.976V25.0112C167.95 23.0176 170.209 21.3367 173.559 21.3367C177.649 21.3367 180.532 23.7212 180.532 29.3404V42.1913H175.818V29.7704C175.818 26.6823 174.572 25.275 171.767 25.275C169.119 25.275 166.976 26.9168 166.976 30.1613V42.1913H162.263V21.7667Z" fill="white"/>
<path d="M182.362 21.7666H187.387L191.438 36.5329L195.761 21.7666H199.695L203.669 36.5329L207.914 21.7666H212.511L206.122 42.201H201.331L197.553 28.451L193.424 42.201H188.594L182.362 21.7666Z" fill="white"/>
<path d="M213.261 36.5328C213.261 31.7638 217.857 30.0438 223.69 30.0438H226.222V28.9884C226.222 26.252 225.287 24.8839 222.522 24.8839C220.068 24.8839 218.86 26.0566 218.626 28.0893H214.069C214.458 23.3203 218.237 21.3267 222.784 21.3267C227.342 21.3267 230.916 23.203 230.916 28.7831V42.1813H226.28V39.6795C224.956 41.4386 223.164 42.5722 220.048 42.5722C216.309 42.5722 213.241 40.7741 213.241 36.5132L213.261 36.5328ZM226.222 35.0473V33.0147H223.807C220.223 33.0147 217.925 33.8355 217.925 36.3373C217.925 38.0573 218.86 39.1909 221.197 39.1909C224.08 39.1909 226.222 37.6664 226.222 35.0473Z" fill="white"/>
<path d="M235.454 21.7667H240.167V25.0112C241.141 23.0176 243.4 21.3367 246.75 21.3367C250.84 21.3367 253.722 23.7212 253.722 29.3404V42.1913H249.009V29.7704C249.009 26.6823 247.762 25.275 244.958 25.275C242.309 25.275 240.167 26.9168 240.167 30.1613V42.1913H235.454V21.7667Z" fill="white"/>
<path d="M258.737 36.4936V25.3236H256.011V21.7664H258.737V17.271H263.451V21.7664H267.93V25.3236H263.451V36.0636C263.451 37.8618 264.308 38.6827 265.788 38.6827C266.723 38.6827 267.424 38.5654 268.086 38.2918V42.0445C267.346 42.3181 266.333 42.5526 264.892 42.5526C260.841 42.5526 258.737 40.3636 258.737 36.4936Z" fill="white"/>
<path d="M269.673 32.194V31.8813C269.673 25.5486 273.997 21.3367 279.791 21.3367C284.854 21.3367 289.402 24.3466 289.402 31.6467V33.0149H274.493C274.649 36.8848 276.597 39.0739 280.102 39.0739C282.946 39.0739 284.426 37.9403 284.776 35.9467H289.334C288.672 40.2466 285.205 42.5822 279.995 42.5822C273.997 42.5822 269.683 38.6341 269.683 32.194H269.673ZM284.738 29.8486C284.504 26.3305 282.712 24.7668 279.791 24.7668C276.947 24.7668 275.038 26.6823 274.571 29.8486H284.728H284.738Z" fill="white"/>
<path d="M291.866 32.3111V31.9984C291.866 25.4703 295.722 21.3365 301.01 21.3365C304.321 21.3365 306.385 22.861 307.515 24.8937V12.3066H312.228V42.1912H307.515V38.7512C306.424 40.7839 303.814 42.5821 300.815 42.5821C295.712 42.5821 291.866 38.9467 291.866 32.3111ZM307.67 32.0765V31.7638C307.67 27.2684 305.606 25.0403 302.178 25.0403C298.712 25.0403 296.686 27.4639 296.686 31.8811V32.1938C296.686 36.6892 298.945 38.8392 301.984 38.8392C305.255 38.8392 307.67 36.6501 307.67 32.0765Z" fill="white"/>
<path d="M53.0417 16.8898C53.0417 16.1373 52.6424 15.4532 51.9997 15.0721L27.7327 1.00938C26.3401 0.198254 24.597 1.2146 24.597 2.82707V8.61243L28.6578 10.9676V6.25724L48.9712 18.0332V41.5753L40.84 36.8649V23.9456C40.84 23.1931 40.4407 22.509 39.798 22.1279L15.5407 8.07494C14.1482 7.26382 12.4051 8.28017 12.4051 9.89264V15.678L16.4658 18.0332V13.3228L36.789 25.0988V37.5001L28.6578 51.6313V37.0701C28.6578 32.5748 26.272 28.4214 22.3963 26.1835L3.34877 15.1405C1.95623 14.3294 0.213135 15.336 0.213135 16.9484V45.0739C0.213135 45.8264 0.612392 46.5104 1.2551 46.8916L25.6195 61.0032H25.6293C26.6518 61.5895 27.8593 61.1595 28.3851 60.2409L39.5546 40.8228L49.8963 46.8134C51.2889 47.6245 53.032 46.6082 53.032 44.9957V16.8898H53.0417ZM24.597 55.7064L4.27387 43.9305V20.3884L20.4194 29.7407C23 31.2359 24.597 34.0016 24.597 37.0017V55.7064Z" fill="white"/>
</svg>
