<svg width="242" height="38" viewBox="0 0 242 38" fill="none" xmlns="http://www.w3.org/2000/svg">
<path d="M38.6899 21.5175C40.7992 22.52 43.3479 23.3412 46.2872 23.9618C49.2266 24.5347 52.1659 24.8211 55.1541 24.8211C59.6656 24.8211 61.4233 24.4869 61.4233 23.2839C61.4233 22.0808 60.4468 21.8421 57.3024 21.6511L52.3514 21.3647C42.303 20.7441 37.6059 18.2043 37.6059 13.6021C37.6059 8.3793 43.5334 5.17114 53.4842 5.17114C59.2164 5.17114 65.1927 6.17369 69.7531 7.9019L68.3273 14.6142C66.511 13.6117 64.1088 12.8383 61.0718 12.2176C58.0348 11.597 55.0466 11.3106 52.0585 11.3106C49.3633 11.3106 48.0938 11.6925 48.0938 12.8478C48.0938 14.0031 49.1191 14.2896 52.2147 14.4328L57.361 14.767C67.1165 15.2921 71.96 17.9274 71.96 22.6251C71.96 27.8479 65.4466 30.9605 54.4705 30.9605C48.1524 30.9605 42.4202 30.0535 37.2739 28.2298L38.6997 21.5175H38.6899Z" fill="white"/>
<path d="M74.1182 5.89673H85.3872V17.9751C85.3872 21.7084 87.35 23.5798 91.2659 23.5798C94.2541 23.5798 97.5352 22.8637 99.6933 20.9923V5.89673H110.962V30.2348H99.6933V25.3462C96.461 29.0795 92.3401 30.9509 87.2915 30.9509C78.9129 30.9509 74.1084 26.492 74.1084 18.4429V5.89673H74.1182Z" fill="white"/>
<path d="M134.399 5.18066C140.424 5.18066 146.107 6.13547 150.228 7.91142L148.803 15.2921C147.23 14.4805 145.131 13.8503 142.533 13.3252C139.936 12.8 137.289 12.5613 134.692 12.5613C128.618 12.5613 126.02 14.1941 126.02 18.0706C126.02 21.5652 129.155 23.5798 134.692 23.5798C137.192 23.5798 139.789 23.3411 142.484 22.816C145.18 22.2908 147.289 21.6225 148.803 20.8491L150.228 28.2298C145.912 30.0057 140.326 30.9605 134.399 30.9605C121.411 30.9605 114.068 26.3106 114.068 18.0706C114.068 9.83058 121.47 5.18066 134.399 5.18066Z" fill="white"/>
<path d="M165.374 5.89673V14.6619L177.825 5.89673H192.668L180.52 14.8051L192.424 30.2348H179.924L172.376 19.7415L165.364 24.821V30.2348H154.095V5.89673H165.364H165.374Z" fill="white"/>
<path d="M194.533 21.5175C196.642 22.52 199.191 23.3412 202.13 23.9618C205.07 24.5347 208.009 24.8211 210.997 24.8211C215.509 24.8211 217.266 24.4869 217.266 23.2839C217.266 22.0808 216.29 21.8421 213.145 21.6511L208.194 21.3647C198.146 20.7441 193.449 18.2043 193.449 13.6021C193.449 8.3793 199.376 5.17114 209.327 5.17114C215.059 5.17114 221.036 6.17369 225.596 7.9019L224.17 14.6142C222.354 13.6117 219.952 12.8383 216.915 12.2176C213.878 11.597 210.89 11.3106 207.901 11.3106C205.206 11.3106 203.937 11.6925 203.937 12.8478C203.937 14.0031 204.962 14.2896 208.058 14.4328L213.204 14.767C222.959 15.2921 227.803 17.9274 227.803 22.6251C227.803 27.8479 221.29 30.9605 210.314 30.9605C203.995 30.9605 198.263 30.0535 193.117 28.2298L194.543 21.5175H194.533Z" fill="white"/>
<path d="M34.7935 30.2734H0V37.1672H34.7935V30.2734Z" fill="white"/>
<path d="M236.191 21.5272C239.297 21.489 241.504 23.4654 241.465 26.2439C241.504 29.0224 239.297 30.9989 236.191 30.9607C233.057 30.9989 230.85 29.0224 230.899 26.2439C230.86 23.4654 233.067 21.489 236.191 21.5272Z" fill="white"/>
<path d="M234.863 0.836346C237.188 0.807702 238.848 2.28766 238.818 4.36914C238.848 6.45063 237.197 7.93058 234.863 7.90194C232.52 7.93058 230.86 6.45063 230.889 4.36914C230.86 2.28766 232.51 0.807702 234.863 0.836346ZM234.863 1.3042C232.813 1.3042 231.426 2.51681 231.426 4.37869C231.426 6.24057 232.813 7.45318 234.863 7.45318C236.914 7.45318 238.281 6.24057 238.281 4.37869C238.281 2.51681 236.914 1.3042 234.863 1.3042ZM235.401 2.50726C236.358 2.50726 236.885 2.88919 236.885 3.5862C236.885 4.13999 236.563 4.47417 235.908 4.58875C236.299 4.66513 236.543 4.98022 236.826 5.72497L237.022 6.22147H236.279L236.026 5.5913C235.879 5.22847 235.742 4.98977 235.586 4.86564C235.449 4.74152 235.235 4.68423 234.961 4.68423H233.555V6.22147H232.92V2.50726H235.401ZM236.231 3.5862C236.231 3.16608 235.918 2.94647 235.332 2.94647H233.555V4.23547H235.332C235.918 4.23547 236.231 4.01586 236.231 3.5862Z" fill="white"/>
</svg>
