<?xml version="1.0" encoding="UTF-8"?>
<svg width="178px" height="27px" viewBox="0 0 178 27" version="1.1" xmlns="http://www.w3.org/2000/svg" xmlns:xlink="http://www.w3.org/1999/xlink">
    <title>sucks</title>
    <g id="Page-1" stroke="none" stroke-width="1" fill="none" fill-rule="evenodd">
        <g id="sucks" transform="translate(0.000000, -0.000244)" fill="#FFFFFF" fill-rule="nonzero">
            <path d="M28.5208,15.3699438 C30.0757,16.1149438 31.9546,16.7252438 34.1214,17.1864438 C36.2882,17.6122438 38.4549,17.8251438 40.6577,17.8251438 C43.9835,17.8251438 45.2792,17.5767438 45.2792,16.6826438 C45.2792,15.7885438 44.5594,15.6111438 42.2414,15.4692438 L38.5917,15.2563438 C31.1843,14.7951438 27.7218,12.9076438 27.7218,9.4873438 C27.7218,5.6059438 32.0914,3.2216438 39.4267,3.2216438 C43.6523,3.2216438 48.0579,3.9667438 51.4196,5.2511438 L50.3686,10.2395438 C49.0297,9.4944438 47.2588,8.9197438 45.0201,8.4584438 C42.7813,7.9972438 40.5785,7.7843438 38.3757,7.7843438 C36.3889,7.7843438 35.4531,8.0682438 35.4531,8.9268438 C35.4531,9.7854438 36.209,9.9982438 38.4909,10.1047438 L42.2846,10.3530438 C49.476,10.7433438 53.0465,12.7018438 53.0465,16.1930438 C53.0465,20.0745438 48.245,22.3877438 40.1538,22.3877438 C35.4963,22.3877438 31.2707,21.7136438 27.4771,20.3583438 L28.528,15.3699438 L28.5208,15.3699438 Z" id="Path"></path>
            <path d="M54.6376,3.7609438 L62.9448,3.7609438 L62.9448,12.7373438 C62.9448,15.5118438 64.3917,16.9026438 67.2783,16.9026438 C69.4811,16.9026438 71.8998,16.3704438 73.4907,14.9796438 L73.4907,3.7609438 L81.798,3.7609438 L81.798,21.8485438 L73.4907,21.8485438 L73.4907,18.2153438 C71.108,20.9899438 68.0702,22.3807438 64.3485,22.3807438 C58.1721,22.3807438 54.6304,19.0669438 54.6304,13.0850438 L54.6304,3.7609438 L54.6376,3.7609438 Z" id="Path"></path>
            <path d="M99.074,3.2287438 C103.516,3.2287438 107.706,3.9383438 110.743,5.2582438 L109.692,10.7433438 C108.533,10.1401438 106.986,9.6718438 105.071,9.2815438 C103.156,8.8913438 101.205,8.7139438 99.29,8.7139438 C94.813,8.7139438 92.898,9.9273438 92.898,12.8082438 C92.898,15.4053438 95.209,16.9026438 99.29,16.9026438 C101.133,16.9026438 103.048,16.7252438 105.035,16.3349438 C107.022,15.9446438 108.577,15.4479438 109.692,14.8731438 L110.743,20.3583438 C107.562,21.6781438 103.444,22.3877438 99.074,22.3877438 C89.5,22.3877438 84.087,18.9320438 84.087,12.8082438 C84.087,6.6844438 89.543,3.2287438 99.074,3.2287438 Z" id="Path"></path>
            <polygon id="Path" points="121.909 3.7609438 121.909 10.2750438 131.087 3.7609438 142.029 3.7609438 133.074 10.3814438 141.849 21.8485438 132.635 21.8485438 127.07 14.0500438 121.901 17.8251438 121.901 21.8485438 113.594 21.8485438 113.594 3.7609438 121.901 3.7609438"></polygon>
            <path d="M143.404,15.3699438 C144.959,16.1149438 146.837,16.7252438 149.004,17.1864438 C151.171,17.6122438 153.338,17.8251438 155.541,17.8251438 C158.866,17.8251438 160.162,17.5767438 160.162,16.6826438 C160.162,15.7885438 159.442,15.6111438 157.124,15.4692438 L153.475,15.2563438 C146.067,14.7951438 142.605,12.9076438 142.605,9.4873438 C142.605,5.6059438 146.974,3.2216438 154.31,3.2216438 C158.535,3.2216438 162.941,3.9667438 166.302,5.2511438 L165.251,10.2395438 C163.913,9.4944438 162.142,8.9197438 159.903,8.4584438 C157.664,7.9972438 155.461,7.7843438 153.259,7.7843438 C151.272,7.7843438 150.336,8.0682438 150.336,8.9268438 C150.336,9.7854438 151.092,9.9982438 153.374,10.1047438 L157.167,10.3530438 C164.359,10.7433438 167.929,12.7018438 167.929,16.1930438 C167.929,20.0745438 163.128,22.3877438 155.037,22.3877438 C150.379,22.3877438 146.154,21.7136438 142.36,20.3583438 L143.411,15.3699438 L143.404,15.3699438 Z" id="Path"></path>
            <polygon id="Path" points="25.6486 21.8769438 0 21.8769438 0 27.0002438 25.6486 27.0002438"></polygon>
            <path d="M174.113,15.3771438 C176.402,15.3487438 178.029,16.8175438 178,18.8825438 C178.029,20.9474438 176.402,22.4162438 174.113,22.3878438 C171.802,22.4162438 170.175,20.9474438 170.211,18.8825438 C170.182,16.8175438 171.809,15.3487438 174.113,15.3771438 Z" id="Path"></path>
            <path d="M173.134,0.000303801239 C174.847,-0.0209861988 176.071,1.0788438 176.049,2.6258438 C176.071,4.1727438 174.854,5.2725438 173.134,5.2512438 C171.406,5.2725438 170.182,4.1727438 170.204,2.6258438 C170.182,1.0788438 171.399,-0.0209861988 173.134,0.000303801239 Z M173.134,0.348003801 C171.622,0.348003801 170.6,1.2491438 170.6,2.6328438 C170.6,4.0166438 171.622,4.9177438 173.134,4.9177438 C174.645,4.9177438 175.653,4.0166438 175.653,2.6328438 C175.653,1.2491438 174.645,0.348003801 173.134,0.348003801 Z M173.53,1.2420438 C174.235,1.2420438 174.624,1.5259438 174.624,2.0439438 C174.624,2.4555438 174.386,2.7038438 173.904,2.7890438 C174.192,2.8457438 174.372,3.0799438 174.581,3.6334438 L174.725,4.0024438 L174.178,4.0024438 L173.99,3.5340438 C173.882,3.2644438 173.782,3.0870438 173.666,2.9947438 C173.566,2.9025438 173.407,2.8599438 173.206,2.8599438 L172.169,2.8599438 L172.169,4.0024438 L171.701,4.0024438 L171.701,1.2420438 L173.53,1.2420438 Z M174.142,2.0439438 C174.142,1.7317438 173.911,1.5685438 173.479,1.5685438 L172.169,1.5685438 L172.169,2.5264438 L173.479,2.5264438 C173.911,2.5264438 174.142,2.3632438 174.142,2.0439438 Z" id="Shape"></path>
        </g>
    </g>
</svg>