<?xml version="1.0" encoding="UTF-8"?><svg id="Livello_1" xmlns="http://www.w3.org/2000/svg" width="390" height="204" viewBox="0 0 390 204"><defs><style>.cls-1{fill:none;stroke:#000;stroke-linecap:round;stroke-linejoin:round;stroke-width:2px;}</style></defs><path class="cls-1" d="M388.9,189.8c-19.6,1.9-39.1,1.1-57.4-1.7-7.3-1.1-13.1-2.6-16.9-4.5-49.3-25.5-23.4-33.5-23.4-33.5,.9-.6,2.1-2,1.2-3.1-.7-1-1.8-1.5-3-1.8-5.8-1.6-11.7-3.3-17.5-4.9-4.4-1.2-8.8-2.5-13.2-3.7-3.5-1-7-2-10.5-3-.4-.1-1.2-.1-1.2-.6v-3.3c0-3.9,0-7.8,0-11.7s-.2-4.5,.1-6.7c.3-2.3,1.5-5.5,3.7-6.6,1.4-.7,2.9-1.2,4.4-1.8,7-2.8,14-5.7,21-8.5l14-5.8c1.2-.6,2.2-1.4,3.2-2.3,1.8-1.8,3.2-4.2,4.2-6.5,1.1-2.5,1.9-5,2.4-7.7,.5-2.6,.8-5.2,1-7.8,.6-5.2,1.1-10.4,1.7-15.6,.7-6.1,1.2-14.2,1.8-20.3l.5-5.6c1.3-17.7,12.3-22.8,13.7-17.7,2.9,10.1-20.6,7.1-20.6,7.1l-8-.6c-6-.5-12-.9-17.9-1.4-4.9-.4-9.9-.8-14.8-1.1-3-.2-6.1-.5-9.1-.7-1.2,0-2.4-.2-3.5-.3-.6,0-1.2,0-1.8-.1-.7,0-1.3,0-2,.1-.1,0-.8,0-.8,.1-.2,.4-.4,.7-.6,1.1-.3,.5-.2,1.2-.3,1.7-.1,1.2-.2,2.3-.3,3.5-.2,2.7-.5,5.4-.7,8.1-.5,5.5-1,11-1.5,16.5-.5,5.6-.9,11.2-1.5,16.8-.5,5.2-2.3,10.8-6.7,13.8-1,.7-2.1,1-3.2,1.3-1.2,.3-2.3,.7-3.5,1-2.5,.7-5.1,1.5-7.7,2.2-5.9,1.7-11.8,3.4-17.6,5.1-2.5,.7-5,1.4-7.4,2.1-1,.3-2,.6-3,.9-.9,.3-1.8,.5-2.7,.8-.2,0-.4,0-.5,.2-.4,.4-.4,.4-.4,1,0,1,0,2,.1,3,0,.2,0,.5,0,.7,0,0,0,.1,.1,.1,.6,0,1.3,.5,2,.6-.9,.8-1.7,2-2.2,3.1-.6,1.3-.9,2.6-1.1,4-.2,1.9,0,3.9,.1,5.8,.3,6.9,.6,13.8,.9,20.7,.2,5.2,.5,10.5,.7,15.7,.1,3,.3,6,.4,9.1,0,2.1,.6,4.3,2.3,5.7,1.6,1.3,3.6,1.3,5.4,.5,1.8-.8,3.5-1.6,5.3-2.4,6.9-3.2,13.7-6.4,20.6-9.5,5.3-2.4,10.5-4.9,15.8-7.3,1.5-.7,3.1-1.2,4.8-.8,1.4,.3,2.8,.8,4.2,1.2,.4,.1,.8,.2,1.1,.3,0,0,.5,0,.5,.2,0,0,0,.3,0,.4v1.1c0,5.5,0,11,0,16.5,0,3.8,0,7.6,0,11.5,0,1.9-.1,3.8,.2,5.6,.2,1.2,.7,2.7,1.6,3.5,.5,.4,1,.9,1.6,1.1,.6,.2,1.3,.2,1.9,.2,1.3,0,2.7-1.1,3.8-1.8,0,0,18.7-18.5,28.4-5.2,4.3,6,5,14.3,1.1,20.6-3.8,6.3-10.9,10.1-18.1,11.1-7.2,1.1-14.6-.3-21.5-2.6-31.1-10.1-57.3-31-86.6-45.6C100.2,123.7,46.9,118.5,2,123"/></svg>