<?xml version="1.0" encoding="UTF-8"?><svg id="Livello_1" xmlns="http://www.w3.org/2000/svg" width="390" height="218" viewBox="0 0 390 218"><defs><style>.cls-1{fill:none;stroke:#000;stroke-linecap:round;stroke-linejoin:round;stroke-width:2px;}</style></defs><path class="cls-1" d="M388.1,113.1c-2.1-1-4.5-1.9-7.1-2.7-36.3-10.8-73.9,35.1-50.3,54.4,10.8,8.8,32.8,13.3,57.3,18.3"/><path class="cls-1" d="M2,160.9c53.7-22.1,30.3-55.3,116.3-23,12.2,4.6,25.3-1,27.6-13.7,0-.3,0-.5,.1-.8,1.5-10.4-5.1-20.3-15.3-22.8-1.1-.3-2.2-.4-3.3-.6-15.3-3.2-15.1,5.7-9.3,4.9,5.8-.8,10.1-5.9,10.1-5.9,10.3-12.9,2.9-31.8-13.7-33.8-6.4-1.5-12.5,5.7-7.7,4.9,4.8-.8,8.2-5.7,8.2-5.7,4.5-5.3,5.8-11.4,4.8-18.2-2.4-14.7-11.3-25-22.7-34.2-6.2-5.4-3-12.3-.7-8.6,2.3,3.7,0,11.7,0,11.7-.7,2.8-2,6.9-4.2,9.7-3.7,4.6-8.3,4.7-13.3,4.5-6.1-.2-12.2-.8-18.3-.7-8,0-14.2,3.8-18,10.9-3.7,7-3.1,14.1,1,20.9,0,0,10.4,18.7,15.2,7.7,4.2-9.5-14.3-6.2-14.3-6.2-18.1,.7-26.5,21.3-15.3,34.3,7.2,8.3,20.5,10.2,14.3,2.2-4.1-5.5-15.3-1.8-15.3-1.8-9.8,3.3-15.4,12.2-14.1,22.4,1.2,9.7,4.9,15,19.4,17.5,0,0,80.6-10.4,143.8,44.6,21.2,18.5-15.5,53.9-29.7,18.6-11.1-27.7,43.5-54.6,85.6-48.4,23,3.4,60,31,76.7,38,30.6,12.8,57.8,13.7,73.7-6.7,0,0,1.8-2.2,4.3-5.9"/></svg>