<?xml version="1.0" encoding="UTF-8"?><svg id="Livello_1" xmlns="http://www.w3.org/2000/svg" width="421" height="799.5" viewBox="0 0 421 799.5"><defs><style>.cls-1{fill:none;stroke:#000;stroke-linecap:round;stroke-linejoin:round;stroke-width:2px;}</style></defs><path class="cls-1" d="M7.4,650.7c48.3-28.4,111.1-57.9,188.2-87.9-26.4-.8-45.8-31-31-50.8,14.8-19.8,52.7-11.2,51.7,15.7-1,26.9-20.7,35.1-20.7,35.1,19,0,35.1-14.2,35.1-33.5v-3.6c0-19.4-19-30.7-41.5-34.4-85-13.9-99.9-47-102.1-79.3-2.6-38.1,22.5-78.9,58.9-88.1,21.9-5.5,45.1-8.4,68.6-8.4,42.5,0,63.7,9.7,63.7,29.6s-7.3,35.5-58.3,35.5l-47.9,.3c-10.1,0-18,8.8-17.3,19l3.6,48c.7,9.2,8.3,16.3,17.4,16.3h27.6c9,0,16.5-6.9,17.3-16,.8-8.8,7.9-15.6,16.5-16h2.4c81.6-1.4,129.9-32.7,129.9-87.2s-55.4-101.5-154.9-101.5c-22.4,0-76.7,3.1-114.4,16.9-12.5,4.2-24.2,10.5-34.4,18.9-16.3,13.3-49,52-12.8,57.8,36.3,5.8,125.6-146.5,208.5-147.5,82.9-1,63.1-49.1,80.1-94.2,16.7-44.4,43.2-70.4,71.9-87.6"/><path class="cls-1" d="M7.4,598.2c79,98.4,82.4,163.5,56,201.3"/></svg>